# xmcd
#
# Track frame offsets:
#	182
#	15135
#	33112
#	49455
#	67085
#	87067
#	99340
#	108837
#	121522
#	140802
#	154552
#	169495
#
# Disc length: 2510 seconds
#
# Revision: 1
# Processed by: cddbd v1.5.2PL0 Copyright (c) Steve Scherf et al.
# Submitted via: audiograbber 1.83.01
#
DISCID=8e09cc0c
DTITLE=Marianne Faithfull - Faithless
DYEAR=1988
DGENRE=Folk
TTITLE0=Dreamin' My Dreams
TTITLE1=Vanilla O'Lay
TTITLE2=Wait For Me Down By The River
TTITLE3=I'll Be Your Baby Tonight
TTITLE4=Lady Madelaine
TTITLE5=All I Want To Do In Life
TTITLE6=The Way You Want Me To Be
TTITLE7=Wrong Road Again
TTITLE8=That Was The Day (Nashville)
TTITLE9=This Time
TTITLE10=I'm Not Lisa
TTITLE11=Honky Tonk Angels
EXTD=
EXTT0=
EXTT1=
EXTT2=
EXTT3=
EXTT4=
EXTT5=
EXTT6=
EXTT7=
EXTT8=
EXTT9=
EXTT10=
EXTT11=
PLAYORDER=
